<svg version="1.1" xmlns="http://www.w3.org/2000/svg" xmlns:xlink="http://www.w3.org/1999/xlink" width="94.001" height="57.672" viewBox="0,0,94.001,57.672"><g transform="translate(-192.9995,-151.164)"><g data-paper-data="{&quot;isPaintingLayer&quot;:true}" fill-rule="nonzero" stroke-linejoin="miter" stroke-miterlimit="10" stroke-dasharray="" stroke-dashoffset="0" style="mix-blend-mode: normal"><path d="M285.4995,161.269v37.463c0,4.752 -3.851,8.604 -8.605,8.604h-73.791c-4.752,0 -8.604,-3.852 -8.604,-8.604v-37.463c0,-4.751 3.852,-8.605 8.604,-8.605h73.792c4.751,0 8.605,3.853 8.605,8.605z" data-paper-data="{&quot;index&quot;:null}" fill="#ffffff" stroke="#000000" stroke-width="3" stroke-linecap="butt"/><path d="M205.35807,170.58272c0.4294,0 0.80698,0.15547 1.13274,0.46642c0.32576,0.31095 0.48863,0.69593 0.48863,1.15495v15.32529c0,0.45902 -0.17028,0.844 -0.51084,1.15495c-0.34056,0.31095 -0.72555,0.46642 -1.15495,0.46642c-0.50344,0 -0.90323,-0.15547 -1.19937,-0.46642c-0.29614,-0.31095 -0.44421,-0.69593 -0.44421,-1.15495v-15.32529c0,-0.45902 0.15547,-0.844 0.46642,-1.15495c0.32576,-0.31095 0.73295,-0.46642 1.22158,-0.46642zM217.10745,170.58272c0.48863,0 0.88102,0.15547 1.17716,0.46642c0.31095,0.31095 0.46642,0.69593 0.46642,1.15495v15.32529c0,0.45902 -0.15547,0.844 -0.46642,1.15495c-0.31095,0.31095 -0.71814,0.46642 -1.22158,0.46642c-0.4294,0 -0.80698,-0.15547 -1.13274,-0.46642c-0.32576,-0.31095 -0.48863,-0.69593 -0.48863,-1.15495v-15.32529c0,-0.45902 0.16288,-0.844 0.48863,-1.15495c0.34056,-0.31095 0.73295,-0.46642 1.17716,-0.46642zM205.26922,178.31199h11.83823v3.04285h-11.83823zM236.21934,182.06558c0,1.45109 -0.32576,2.7319 -0.97726,3.84243c-0.6367,1.09572 -1.50292,1.95453 -2.59863,2.57642c-1.08091,0.6219 -2.28769,0.93284 -3.62032,0.93284c-1.34744,0 -2.56902,-0.31095 -3.66474,-0.93284c-1.08091,-0.6219 -1.94713,-1.4807 -2.59863,-2.57642c-0.6367,-1.11053 -0.95505,-2.39134 -0.95505,-3.84243c0,-1.45109 0.31835,-2.7245 0.95505,-3.82022c0.65151,-1.11053 1.51772,-1.97674 2.59864,-2.59864c1.09572,-0.6367 2.3173,-0.95505 3.66474,-0.95505c1.33263,0 2.53941,0.31835 3.62032,0.95505c1.09572,0.6219 1.96193,1.48811 2.59864,2.59864c0.65151,1.09572 0.97726,2.36913 0.97726,3.82022zM233.04323,182.06558c0,-0.90323 -0.18509,-1.6806 -0.55526,-2.33211c-0.35537,-0.66632 -0.8366,-1.18456 -1.44369,-1.55474c-0.60709,-0.37018 -1.28081,-0.55526 -2.02116,-0.55526c-0.75516,0 -1.43628,0.18509 -2.04337,0.55526c-0.60709,0.37018 -1.09572,0.88842 -1.4659,1.55474c-0.35537,0.65151 -0.53305,1.42888 -0.53305,2.33211c0,0.88842 0.17768,1.66579 0.53305,2.33211c0.37018,0.65151 0.85881,1.16976 1.4659,1.55474c0.60709,0.37018 1.28821,0.55526 2.04337,0.55526c0.74035,0 1.41407,-0.18509 2.02116,-0.55526c0.60709,-0.38498 1.08832,-0.90323 1.44369,-1.55474c0.37018,-0.66632 0.55526,-1.44369 0.55526,-2.33211zM246.45966,174.69167c1.42148,0 2.46537,0.34056 3.13169,1.02169c0.66632,0.68112 1.11053,1.56214 1.33263,2.64306l-0.46642,-0.24432l0.22211,-0.422c0.2073,-0.39979 0.53305,-0.8366 0.97726,-1.31042c0.44421,-0.47382 0.97726,-0.87361 1.59916,-1.19937c0.6367,-0.32576 1.34004,-0.48863 2.11,-0.48863c1.2734,0 2.24327,0.27393 2.90958,0.82179c0.66632,0.54786 1.11793,1.28081 1.35484,2.19885c0.25172,0.90323 0.37758,1.91751 0.37758,3.04285v6.77422c0,0.45902 -0.14807,0.844 -0.44421,1.15495c-0.29614,0.31095 -0.67372,0.46642 -1.13274,0.46642c-0.45902,0 -0.844,-0.15547 -1.15495,-0.46642c-0.29614,-0.31095 -0.44421,-0.69593 -0.44421,-1.15495v-6.77422c0,-0.59228 -0.07403,-1.11793 -0.22211,-1.57695c-0.13326,-0.47382 -0.38498,-0.8514 -0.75516,-1.13274c-0.37018,-0.28133 -0.90323,-0.422 -1.59916,-0.422c-0.66632,0 -1.24379,0.14067 -1.73242,0.422c-0.47382,0.28133 -0.82919,0.65891 -1.06611,1.13274c-0.23691,0.45902 -0.35537,0.98467 -0.35537,1.57695v6.77422c0,0.45902 -0.15547,0.844 -0.46642,1.15495c-0.29614,0.31095 -0.67372,0.46642 -1.13274,0.46642c-0.45902,0 -0.8366,-0.15547 -1.13274,-0.46642c-0.29614,-0.31095 -0.44421,-0.69593 -0.44421,-1.15495v-6.77422c0,-0.59228 -0.07403,-1.11793 -0.22211,-1.57695c-0.13326,-0.47382 -0.38498,-0.8514 -0.75516,-1.13274c-0.37018,-0.28133 -0.90323,-0.422 -1.59916,-0.422c-0.66632,0 -1.24379,0.14067 -1.73242,0.422c-0.47382,0.28133 -0.82919,0.65891 -1.06611,1.13274c-0.23691,0.45902 -0.35537,0.98467 -0.35537,1.57695v6.77422c0,0.45902 -0.15547,0.844 -0.46642,1.15495c-0.29614,0.31095 -0.67372,0.46642 -1.13274,0.46642c-0.45902,0 -0.8366,-0.15547 -1.13274,-0.46642c-0.29614,-0.31095 -0.44421,-0.69593 -0.44421,-1.15495v-10.9498c0,-0.45902 0.14807,-0.844 0.44421,-1.15495c0.29614,-0.31095 0.67372,-0.46642 1.13274,-0.46642c0.45902,0 0.8366,0.15547 1.13274,0.46642c0.31095,0.31095 0.46642,0.69593 0.46642,1.15495v1.13274l-0.39979,-0.06663c0.16288,-0.29614 0.38498,-0.61449 0.66632,-0.95505c0.28133,-0.35537 0.6219,-0.68112 1.02169,-0.97726c0.4146,-0.31095 0.86621,-0.55526 1.35484,-0.73295c0.50344,-0.19249 1.0439,-0.28874 1.62137,-0.28874zM270.13319,189.41728c-1.49551,0 -2.79853,-0.31095 -3.90906,-0.93284c-1.09572,-0.6367 -1.93972,-1.49551 -2.532,-2.57642c-0.59228,-1.08091 -0.88842,-2.29509 -0.88842,-3.64253c0,-1.59916 0.31835,-2.96141 0.95505,-4.08674c0.65151,-1.12534 1.49551,-1.98415 2.532,-2.57642c1.0513,-0.60709 2.16183,-0.91063 3.33158,-0.91063c0.90323,0 1.75463,0.18509 2.55421,0.55526c0.79958,0.37018 1.51032,0.88102 2.13221,1.53253c0.6219,0.65151 1.11053,1.39927 1.4659,2.24327c0.37018,0.844 0.55526,1.74723 0.55526,2.70969c-0.01481,0.4146 -0.18509,0.75516 -0.51084,1.02169c-0.31095,0.26653 -0.68112,0.39979 -1.11053,0.39979h-10.12801l-0.79958,-2.64306h9.72822l-0.57747,0.53305v-0.73295c-0.04442,-0.50344 -0.22951,-0.95505 -0.55526,-1.35484c-0.32576,-0.4146 -0.73295,-0.74035 -1.22158,-0.97726c-0.47382,-0.23691 -0.98467,-0.35537 -1.53253,-0.35537c-0.53305,0 -1.02909,0.07403 -1.48811,0.22211c-0.45902,0.13326 -0.85881,0.37018 -1.19937,0.71074c-0.34056,0.32576 -0.60709,0.77737 -0.79958,1.35484c-0.19249,0.56267 -0.28874,1.2734 -0.28874,2.13221c0,0.94765 0.1999,1.75463 0.59969,2.42095c0.39979,0.66632 0.91063,1.17716 1.53253,1.53253c0.6367,0.34056 1.30302,0.51084 1.99895,0.51084c0.66632,0 1.19197,-0.05182 1.57695,-0.15547c0.38498,-0.11846 0.69593,-0.25172 0.93284,-0.39979c0.23691,-0.14807 0.45161,-0.27393 0.64411,-0.37758c0.32576,-0.16288 0.6293,-0.24432 0.91063,-0.24432c0.38498,0 0.70334,0.13326 0.95505,0.39979c0.26653,0.26653 0.39979,0.57747 0.39979,0.93284c0,0.47382 -0.25172,0.90323 -0.75516,1.28821c-0.45902,0.39979 -1.10313,0.74776 -1.93232,1.0439c-0.82919,0.28133 -1.688,0.422 -2.57642,0.422z" fill="#000000" stroke="none" stroke-width="1" stroke-linecap="square"/></g></g></svg>