<svg version="1.1" xmlns="http://www.w3.org/2000/svg" xmlns:xlink="http://www.w3.org/1999/xlink" width="232.80784" height="170.05017" viewBox="0,0,232.80784,170.05017"><g transform="translate(-123.59608,-94.97491)"><g data-paper-data="{&quot;isPaintingLayer&quot;:true}" fill="#000000" fill-rule="nonzero" stroke="none" stroke-width="1" stroke-linecap="butt" stroke-linejoin="miter" stroke-miterlimit="10" stroke-dasharray="" stroke-dashoffset="0" style="mix-blend-mode: normal"><path d="M249.76676,96.09981c3.80094,0 6.89101,1.27665 9.27022,3.82995c2.37921,2.52428 3.56882,5.68689 3.56882,9.48783v138.57449c0,4.12009 -1.39271,7.57285 -4.17813,10.35827c-2.75641,2.75641 -6.19466,4.1346 -10.31475,4.1346c-2.06005,0 -4.16361,-0.34818 -6.31071,-1.04453c-2.11807,-0.72536 -3.7429,-1.72637 -4.87448,-3.00303l-87.21837,-110.75026v101.48005c0,3.80094 -1.23313,6.97805 -3.69938,9.53135c-2.43724,2.52428 -5.64337,3.78643 -9.61839,3.78643c-3.80094,0 -6.89101,-1.26214 -9.27022,-3.78643c-2.3502,-2.55329 -3.52529,-5.73041 -3.52529,-9.53135v-138.57449c0,-4.12009 1.3782,-7.55834 4.1346,-10.31475c2.78542,-2.78542 6.23818,-4.17813 10.35827,-4.17813c2.20512,0 4.49729,0.43522 6.8765,1.30566c2.37921,0.87044 4.12009,2.17611 5.22266,3.91699l86.52201,110.3457v-102.25058c0,-3.80094 1.18961,-6.96354 3.56882,-9.48783c2.37921,-2.55329 5.54182,-3.82995 9.48783,-3.82995z"/><path d="M352.26697,239.54275c2.91335,2.91335 4.28795,6.42167 4.12382,10.52498c-0.16413,4.06228 -1.65157,7.4988 -4.46234,10.30957c-3.13903,3.13903 -6.63711,4.68804 -10.49421,4.64699c-3.85711,-0.08206 -7.24233,-1.57978 -10.15569,-4.49313l-90.23748,-140.37498c-2.91335,-2.91335 -4.33923,-6.34986 -4.27769,-10.30955c0.04104,-3.98021 1.63107,-7.53983 4.7701,-10.67886c2.68766,-2.68766 6.05236,-4.08278 10.09413,-4.18537c4.02125,-0.1231 7.48854,1.27202 10.40189,4.18537z"/><path d="M282.78724,221.03261c-4.12009,0 -7.55834,-1.42172 -10.31475,-4.26517c-2.78542,-2.84345 -4.17813,-6.4848 -4.17813,-10.92406c0,-3.80094 1.39271,-7.16664 4.17813,-10.09714c2.75641,-2.9305 6.19466,-4.39574 10.31475,-4.39574h25.32656l20.60819,29.6821z"/></g></g></svg>